# xmcd
#
# Track frame offsets: 
#        150
#        27792
#        41345
#        57246
#        86839
#
# Disc length: 1425 seconds
#
# Revision: 0
# Processed by: cddbd v1.5.2PL0 Copyright (c) Steve Scherf et al.
# Submitted via: ExactAudioCopy v0.95b4
#
DISCID=35058f05
DTITLE=Goya - Goya
DYEAR=2007
DGENRE=Alternative
TTITLE0=Jacky Francis
TTITLE1=Walk Feet Walk
TTITLE2=Running over Water
TTITLE3=Brazil Jacky
TTITLE4=Double Trouble
EXTD=
EXTT0=
EXTT1=
EXTT2=
EXTT3=
EXTT4=
PLAYORDER=
